<?xml version="1.0" standalone="no"?>
<!DOCTYPE svg PUBLIC "-//W3C//DTD SVG 20010904//EN"
 "http://www.w3.org/TR/2001/REC-SVG-20010904/DTD/svg10.dtd">
<svg version="1.0" xmlns="http://www.w3.org/2000/svg"
 width="600.000000pt" height="600.000000pt" viewBox="0 0 600.000000 600.000000"
 preserveAspectRatio="xMidYMid meet">
<metadata>
Created by potrace 1.11, written by Peter Selinger 2001-2013
</metadata>
<g transform="translate(0.000000,600.000000) scale(0.100000,-0.100000)"
fill="#000000" stroke="none">
<path d="M2798 5996 c-1 -2 -37 -6 -78 -10 -91 -8 -114 -11 -240 -32 -184 -31
-570 -143 -605 -175 -5 -5 -15 -9 -22 -9 -25 0 -299 -137 -409 -205 -255 -156
-504 -364 -705 -590 -67 -76 -293 -385 -286 -391 1 -1 60 -38 130 -83 114 -72
130 -80 150 -69 12 6 128 76 257 156 369 227 427 262 439 262 6 0 73 -37 149
-82 75 -46 141 -85 145 -87 4 -1 40 -22 79 -46 l72 -43 -1 -129 c-2 -151 17
-220 87 -324 190 -282 698 -462 1169 -415 70 7 77 8 173 31 260 61 483 206
600 390 67 104 83 160 82 285 0 149 -30 237 -125 365 -37 51 -125 133 -160
149 -10 5 -19 13 -19 18 0 4 -5 8 -11 8 -6 0 -24 9 -39 20 -58 42 -266 116
-370 134 -132 22 -331 27 -465 13 -65 -7 -86 -10 -142 -21 -106 -22 -95 -25
-270 87 l-163 105 221 126 c121 69 225 126 230 126 5 0 9 5 9 10 0 6 4 10 9
10 5 0 76 38 157 85 82 47 154 83 161 81 11 -5 294 -168 628 -363 110 -64 276
-161 350 -203 45 -26 311 -181 480 -280 83 -48 168 -99 191 -111 95 -55 260
-151 274 -159 30 -18 167 -99 265 -154 l100 -58 40 21 c125 64 220 121 217
131 -4 17 -95 151 -166 245 -144 190 -326 377 -515 529 -72 58 -315 226 -327
226 -3 0 -19 9 -35 21 -45 31 -271 142 -394 192 -225 92 -516 168 -740 193
-33 4 -69 9 -80 11 -22 5 -491 13 -497 9z"/>
<path d="M362 4427 c-15 -20 -108 -216 -145 -307 -103 -252 -178 -562 -205
-850 -9 -98 -8 -464 1 -560 44 -431 192 -888 396 -1225 23 -37 41 -69 41 -71
0 -1 37 -56 82 -121 342 -490 810 -863 1360 -1082 216 -86 490 -158 706 -186
23 -3 59 -7 80 -10 20 -2 78 -7 128 -10 l91 -6 1 155 0 155 -36 22 c-21 12
-50 29 -67 39 -16 9 -113 66 -215 125 -102 60 -200 116 -218 127 -18 10 -44
25 -56 33 l-23 15 1 357 1 356 58 31 c193 104 300 332 291 618 -4 137 -6 150
-33 261 -94 392 -380 768 -707 930 -77 39 -177 72 -244 83 -48 7 -162 7 -195
0 -65 -14 -86 -21 -143 -48 -151 -72 -275 -259 -300 -453 -13 -93 -6 -287 13
-380 43 -216 164 -473 299 -634 23 -27 36 -53 36 -72 0 -16 1 -103 1 -194 0
-329 0 -318 -13 -307 -7 5 -29 19 -48 30 -19 10 -90 51 -157 91 -68 39 -127
71 -133 71 -5 0 -10 5 -10 10 0 6 -4 10 -10 10 -5 0 -33 14 -62 31 -29 18 -71
42 -93 54 -22 13 -78 45 -125 72 l-84 49 -1 1317 0 1317 -127 85 c-92 62 -129
81 -136 72z"/>
<path d="M5500 4350 l-125 -70 0 -436 c-1 -422 -1 -436 -20 -447 -25 -15 -184
-100 -347 -184 l-126 -66 -74 60 c-40 33 -83 66 -95 72 -118 61 -305 66 -458
11 -49 -17 -115 -46 -145 -63 -345 -193 -609 -587 -695 -1037 -11 -60 -13
-282 -3 -350 35 -231 156 -394 345 -467 92 -35 242 -40 358 -12 95 23 256 101
340 164 194 146 360 369 438 590 14 39 36 99 49 134 l24 65 129 76 c72 42 165
95 207 119 l77 42 -1 -450 c-1 -248 -4 -455 -7 -459 -5 -7 -323 -194 -951
-560 -52 -31 -115 -67 -139 -81 -24 -14 -60 -35 -80 -47 -20 -11 -155 -90
-301 -176 -146 -85 -308 -180 -360 -210 -52 -30 -147 -86 -210 -123 -63 -37
-135 -80 -160 -94 -25 -14 -54 -31 -65 -38 -18 -11 -20 -23 -20 -163 l0 -151
95 6 c121 8 189 15 295 31 28 4 160 31 198 40 9 2 25 6 35 8 76 17 338 100
397 126 199 87 253 113 354 170 478 270 866 650 1133 1110 183 314 333 739
374 1063 3 23 7 53 10 67 25 153 26 606 0 760 -3 14 -10 59 -16 100 -6 41 -18
107 -26 145 -9 39 -17 79 -20 89 -7 35 -57 200 -85 281 -51 150 -177 425 -194
425 -5 -1 -66 -32 -135 -70z"/>
</g>
</svg>
